<?xml version="1.0" standalone="no"?><!DOCTYPE svg PUBLIC "-//W3C//DTD SVG 1.1//EN" "http://www.w3.org/Graphics/SVG/1.1/DTD/svg11.dtd"><svg t="1571642872832" class="icon" viewBox="0 0 1024 1024" version="1.1" xmlns="http://www.w3.org/2000/svg" p-id="2115" xmlns:xlink="http://www.w3.org/1999/xlink" width="200" height="200"><defs><style type="text/css"></style></defs><path d="M845.617 232v-74.338c0-51.644-41.739-93.662-93.066-93.662H271.449c-51.327 0-93.066 42.018-93.066 93.662v708.676c0 51.644 41.739 93.662 93.066 93.662h481.102c51.29 0 93.066-42.019 93.066-93.662V344.149H807.49v282.235H216.511V157.662c0-30.625 24.648-55.535 54.938-55.535h481.102c30.29 0 54.939 24.91 54.939 55.535V232h38.127zM807.49 664.511v201.827c0 30.626-24.649 55.535-54.939 55.535H271.449c-30.29 0-54.938-24.909-54.938-55.535V664.511H807.49z" p-id="2116"></path><path d="M391.958 194.766a9.527 9.527 0 0 0-9.533 9.533v18.17a9.526 9.526 0 0 0 9.533 9.532h240.085a9.525 9.525 0 0 0 9.531-9.532v-18.17a9.526 9.526 0 0 0-9.531-9.533H391.958zM483.404 817.021h57.191c10.537 0 19.064-8.525 19.064-19.063V759.83c0-10.537-8.527-19.063-19.064-19.063h-57.191c-10.519 0-19.064 8.526-19.064 19.063v38.128c0 10.538 8.546 19.063 19.064 19.063z" p-id="2117"></path></svg>