<?xml version="1.0" standalone="no"?><!DOCTYPE svg PUBLIC "-//W3C//DTD SVG 1.1//EN" "http://www.w3.org/Graphics/SVG/1.1/DTD/svg11.dtd"><svg t="1571642858862" class="icon" viewBox="0 0 1024 1024" version="1.1" xmlns="http://www.w3.org/2000/svg" p-id="2003" xmlns:xlink="http://www.w3.org/1999/xlink" width="200" height="200"><defs><style type="text/css"></style></defs><path d="M511.999 108.8c90.701 0 164.49 74.241 164.49 165.497a165.464 165.464 0 0 1-99.53 152.033 163.437 163.437 0 0 1-129.919 0 165.464 165.464 0 0 1-99.533-152.033c0.002-91.256 73.792-165.497 164.492-165.497m0-44.8c-115.588 0-209.29 94.153-209.29 210.297a210.324 210.324 0 0 0 126.521 193.14 208.233 208.233 0 0 0 165.541 0 210.323 210.323 0 0 0 126.52-193.14C721.29 158.153 627.588 64 511.999 64z" p-id="2004"></path><path d="M511.999 529.288c162.087 0 307.67 113.981 363.62 280.846a709.503 709.503 0 0 1-70.767 38.686c-93.008 44.047-191.539 66.38-292.853 66.38s-199.845-22.333-292.853-66.38a709.53 709.53 0 0 1-70.766-38.685c55.949-166.864 201.532-280.847 363.619-280.847m0-44.8c-197.843 0-364.335 145.883-416.054 344.928a765.11 765.11 0 0 0 104.027 59.894C295.706 934.647 401.123 960 511.999 960s216.293-25.353 312.028-70.69a765.419 765.419 0 0 0 104.028-59.895c-51.721-199.044-218.213-344.927-416.056-344.927z" p-id="2005"></path></svg>